<?xml version="1.0" standalone="no"?>
<!DOCTYPE svg PUBLIC "-//W3C//DTD SVG 20010904//EN"
 "http://www.w3.org/TR/2001/REC-SVG-20010904/DTD/svg10.dtd">
<svg version="1.0" xmlns="http://www.w3.org/2000/svg"
 width="920.000000pt" height="920.000000pt" viewBox="0 0 920.000000 920.000000"
 preserveAspectRatio="xMidYMid meet">

<g transform="translate(0.000000,920.000000) scale(0.100000,-0.100000)"
fill="#000000" stroke="none">
<path d="M1515 7786 c-48 -21 -81 -64 -128 -166 -40 -85 -140 -296 -462 -970
-56 -118 -171 -359 -255 -535 -84 -176 -182 -381 -217 -455 -36 -74 -105 -218
-153 -320 -48 -102 -118 -248 -154 -325 -78 -163 -87 -203 -58 -266 40 -84 40
-85 395 -253 315 -149 359 -164 424 -147 94 26 73 -12 478 841 109 228 221
465 250 525 29 61 98 205 153 320 55 116 125 264 157 330 457 953 438 910 433
976 -3 41 -12 69 -31 99 -25 37 -49 51 -265 156 -393 192 -422 204 -483 204
-30 -1 -67 -7 -84 -14z"/>
<path d="M7455 7757 c-49 -24 -121 -59 -160 -77 -414 -196 -418 -199 -457
-274 -15 -30 -19 -52 -15 -90 4 -50 35 -117 367 -811 34 -71 105 -220 157
-330 196 -411 302 -634 368 -770 37 -77 107 -223 155 -325 255 -538 313 -657
333 -678 63 -67 152 -74 272 -20 182 82 548 260 575 279 38 29 80 108 80 154
0 40 -23 96 -136 332 -81 169 -305 638 -464 973 -54 113 -122 257 -153 320
-98 205 -277 580 -364 765 -47 99 -125 261 -173 360 -104 212 -119 227 -229
233 -61 3 -73 0 -156 -41z"/>
<path d="M4705 7149 c-260 -20 -552 -105 -764 -222 l-76 -42 -678 -5 -679 -5
-104 -195 c-57 -107 -104 -198 -104 -202 0 -5 200 -8 445 -8 245 0 445 -2 445
-5 0 -3 -29 -56 -64 -118 -150 -265 -159 -292 -171 -502 -19 -331 -42 -443
-135 -661 -54 -126 -62 -177 -35 -240 37 -89 138 -172 240 -199 75 -19 262
-19 369 0 48 8 112 30 164 55 265 127 468 380 543 678 16 63 29 124 29 136 0
37 56 120 121 181 129 119 276 158 458 121 156 -32 195 -54 317 -178 118 -120
207 -199 1360 -1203 1021 -891 1076 -940 1097 -980 15 -28 22 -65 25 -127 4
-76 2 -92 -19 -133 -29 -57 -128 -151 -188 -178 -24 -10 -70 -21 -101 -24
-124 -12 -85 -36 -1024 635 -473 339 -877 624 -896 634 -45 24 -141 24 -181 1
-42 -25 -73 -93 -64 -142 14 -84 47 -117 306 -302 133 -96 511 -366 838 -600
427 -305 604 -437 624 -466 35 -48 46 -135 27 -211 -14 -62 -76 -137 -135
-163 -53 -24 -150 -25 -212 -1 -27 10 -127 75 -223 143 -96 69 -332 237 -525
374 -192 137 -451 320 -574 408 -123 88 -238 164 -256 170 -51 15 -121 0 -160
-35 -66 -57 -71 -151 -12 -214 18 -19 320 -242 671 -497 352 -255 652 -479
668 -498 17 -21 33 -58 40 -92 11 -51 10 -64 -10 -126 -20 -60 -31 -77 -83
-125 -67 -62 -118 -82 -188 -72 -72 10 -22 -23 -1060 709 -140 98 -266 183
-280 189 -31 11 -85 3 -118 -19 -36 -24 -73 -94 -73 -138 0 -21 9 -52 19 -69
12 -18 186 -155 430 -336 301 -224 410 -310 410 -325 1 -61 -80 -158 -163
-196 -51 -23 -152 -25 -222 -4 -38 11 -152 74 -182 100 -1 1 5 18 13 38 19 45
19 139 1 200 -18 60 -87 158 -144 202 -130 101 -279 128 -392 71 l-46 -23 18
51 c9 28 17 73 18 99 0 55 -39 180 -74 235 -47 75 -132 149 -221 193 -78 39
-95 43 -176 47 -105 5 -162 -8 -221 -51 -32 -23 -40 -25 -34 -11 4 11 14 45
22 77 50 192 -101 439 -326 534 -57 24 -78 28 -175 28 -97 0 -116 -3 -160 -24
-27 -14 -54 -27 -60 -29 -5 -3 -2 4 7 14 40 45 72 137 76 221 14 255 -187 480
-453 507 -90 10 -175 -11 -286 -71 -9 -5 -375 422 -463 540 -16 21 -30 36 -33
34 -2 -2 -35 -85 -73 -183 l-70 -179 22 -30 c36 -50 201 -254 287 -355 44 -52
81 -98 81 -101 0 -4 -67 -87 -150 -185 -185 -221 -203 -254 -208 -385 -7 -157
41 -275 152 -376 107 -98 221 -139 366 -131 95 6 189 40 231 84 32 34 43 30
22 -8 -14 -26 -18 -56 -18 -138 0 -100 2 -108 37 -182 85 -178 251 -293 439
-305 104 -7 179 13 247 65 33 25 43 29 38 16 -52 -132 -13 -304 98 -430 96
-109 240 -177 376 -176 127 0 205 41 298 157 l32 40 -11 -33 c-6 -18 -10 -63
-7 -100 5 -91 44 -169 124 -250 84 -84 168 -124 276 -130 125 -7 171 20 293
170 l30 37 100 -65 c98 -63 210 -113 296 -133 67 -16 208 -13 270 5 132 39
273 151 353 282 22 34 42 62 45 62 3 0 26 -12 51 -26 62 -36 172 -81 242 -99
295 -77 536 66 667 397 17 42 31 83 31 91 0 11 26 15 123 20 190 9 307 52 415
152 107 99 171 257 172 423 l0 72 38 0 c70 0 254 39 306 64 146 71 276 239
321 413 45 174 -12 412 -139 580 -37 48 -46 68 -40 85 3 12 46 109 94 216 l88
195 -43 91 c-23 50 -143 300 -265 556 -123 256 -273 571 -335 700 -155 328
-321 674 -450 943 l-111 230 -74 3 c-249 14 -383 35 -655 104 -148 38 -335 87
-414 109 -175 50 -283 69 -449 81 -144 11 -173 11 -327 -1z"/>
</g>
</svg>
