<?xml version="1.0" standalone="no"?>
<!DOCTYPE svg PUBLIC "-//W3C//DTD SVG 20010904//EN"
 "http://www.w3.org/TR/2001/REC-SVG-20010904/DTD/svg10.dtd">
<svg version="1.0" xmlns="http://www.w3.org/2000/svg"
 width="920.000000pt" height="526.000000pt" viewBox="0 0 920.000000 526.000000"
 preserveAspectRatio="xMidYMid meet">

<g transform="translate(0.000000,526.000000) scale(0.100000,-0.100000)"
fill="#000000" stroke="none">
<path d="M2346 4268 c-25 -25 -42 -62 -70 -146 -21 -62 -38 -129 -38 -148 0
-69 62 -121 135 -111 54 7 82 38 110 122 l24 70 1916 3 c1532 2 1916 0 1912
-10 -2 -7 -47 -175 -100 -373 -124 -463 -134 -499 -249 -875 -52 -173 -147
-484 -209 -690 l-114 -375 -1062 -3 c-1004 -2 -1062 -1 -1067 15 -127 381
-562 547 -903 346 -95 -56 -182 -148 -229 -240 -21 -43 -41 -88 -44 -101 -6
-22 -6 -22 -232 -22 -124 0 -226 3 -226 7 0 3 42 144 94 312 116 374 117 379
67 429 -61 60 -154 45 -190 -31 -11 -23 -75 -221 -142 -440 -116 -379 -121
-400 -110 -437 22 -74 24 -74 390 -80 l324 -5 13 -61 c25 -123 110 -259 211
-338 229 -180 536 -182 771 -5 99 75 192 222 216 343 l13 61 1645 3 1645 2 12
-60 c7 -33 30 -97 53 -142 50 -101 160 -215 255 -266 133 -70 300 -90 447 -52
116 29 190 73 281 165 91 91 135 168 163 282 l17 73 253 0 c237 0 256 1 282
20 15 11 32 32 38 47 23 57 242 824 242 847 0 55 -38 84 -334 254 l-290 167
-303 525 c-167 289 -315 535 -329 548 l-25 22 -523 0 c-287 0 -525 2 -528 5
-3 3 10 60 29 128 38 140 36 176 -18 221 l-31 26 -2080 0 -2080 0 -32 -32z
m5424 -1065 c151 -262 287 -495 301 -518 23 -36 61 -61 291 -193 l265 -153
-67 -232 c-37 -127 -77 -265 -89 -304 l-22 -73 -197 0 -197 0 -19 52 c-42 120
-154 251 -268 316 -268 153 -613 81 -799 -165 -26 -33 -60 -93 -75 -132 l-29
-71 -452 0 c-358 0 -451 3 -448 13 5 12 100 365 270 1002 53 198 133 479 177
625 44 146 83 275 85 288 l5 22 497 0 496 0 275 -477z m-4675 -1297 c78 -36
156 -113 190 -188 92 -205 -14 -443 -226 -509 -199 -62 -401 40 -471 238 -69
197 61 430 269 483 64 16 176 5 238 -24z m4476 14 c161 -51 262 -188 262 -355
0 -150 -75 -270 -211 -337 -61 -30 -74 -33 -162 -33 -88 0 -101 3 -162 33
-113 55 -194 166 -207 282 -22 195 89 365 269 414 77 20 137 19 211 -4z"/>
<path d="M358 3734 c-79 -42 -76 -169 6 -208 32 -15 159 -16 1525 -14 l1491 3
30 30 c56 57 47 149 -19 188 -27 16 -132 17 -1518 17 -1297 -1 -1492 -3 -1515
-16z"/>
<path d="M1572 3313 c-67 -33 -84 -128 -33 -185 l29 -33 1152 -3 1152 -2 33
33 c19 19 37 46 41 61 9 37 -15 94 -49 120 l-28 21 -1132 2 c-1030 2 -1135 1
-1165 -14z"/>
<path d="M956 2860 c-92 -28 -113 -155 -34 -211 l30 -22 947 0 c520 1 972 1
1005 2 52 1 61 4 92 35 29 29 34 41 34 79 0 56 -34 102 -88 117 -46 12 -1943
12 -1986 0z"/>
</g>
</svg>
