<?xml version="1.0" standalone="no"?>
<!DOCTYPE svg PUBLIC "-//W3C//DTD SVG 20010904//EN"
 "http://www.w3.org/TR/2001/REC-SVG-20010904/DTD/svg10.dtd">
<svg version="1.0" xmlns="http://www.w3.org/2000/svg"
 width="920.000000pt" height="920.000000pt" viewBox="0 0 920.000000 920.000000"
 preserveAspectRatio="xMidYMid meet">

<g transform="translate(0.000000,920.000000) scale(0.100000,-0.100000)"
fill="#000000" stroke="none">
<path d="M2877 8624 c-4 -4 -7 -911 -7 -2016 l0 -2008 -575 0 -575 0 0 -290 0
-290 575 0 575 0 0 -285 0 -285 -575 0 -575 0 0 -290 0 -290 575 0 575 0 0
-860 0 -860 290 0 290 0 0 860 0 860 863 2 862 3 3 288 2 287 -865 0 -865 0 0
285 0 285 898 0 c922 1 934 1 1137 26 301 37 634 157 899 323 591 371 974 959
1072 1647 23 164 24 460 0 619 -140 959 -834 1716 -1776 1935 -233 55 -199 53
-1545 57 -688 2 -1254 1 -1258 -3z m2464 -585 c201 -20 397 -74 569 -155 867
-411 1231 -1442 816 -2309 -92 -192 -195 -334 -363 -496 -278 -268 -635 -431
-1028 -469 -67 -6 -459 -10 -997 -10 l-888 0 0 1725 0 1725 894 0 c556 0 933
-4 997 -11z"/>
</g>
</svg>
