<?xml version="1.0" encoding="UTF-8"?>
<svg xmlns="http://www.w3.org/2000/svg" xmlns:xlink="http://www.w3.org/1999/xlink" width="30px" height="30px" viewBox="0 0 30 30" version="1.1">
<g id="surface1">
<path style=" stroke:none;fill-rule:nonzero;fill:rgb(5.882353%,5.882353%,5.882353%);fill-opacity:1;" d="M 8.742188 8.757812 C 8.253906 9.246094 8.253906 10.039062 8.742188 10.527344 L 13.226562 15.007812 L 8.742188 19.488281 C 8.253906 19.976562 8.253906 20.769531 8.742188 21.257812 C 9.230469 21.746094 10.023438 21.746094 10.511719 21.257812 L 14.992188 16.773438 L 19.472656 21.257812 C 19.960938 21.746094 20.753906 21.746094 21.242188 21.257812 C 21.730469 20.769531 21.730469 19.976562 21.242188 19.488281 L 16.761719 15.007812 L 21.242188 10.527344 C 21.730469 10.039062 21.730469 9.246094 21.242188 8.757812 C 20.753906 8.269531 19.960938 8.269531 19.472656 8.757812 L 14.992188 13.238281 L 10.511719 8.757812 C 10.023438 8.269531 9.230469 8.269531 8.742188 8.757812 Z M 8.742188 8.757812 "/>
</g>
</svg>
