<?xml version="1.0" encoding="UTF-8"?>
<svg xmlns="http://www.w3.org/2000/svg" xmlns:xlink="http://www.w3.org/1999/xlink" width="25px" height="25px" viewBox="0 0 25 25" version="1.1">
<g id="surface1">
<path style=" stroke:none;fill-rule:evenodd;fill:#2c8c40; fill-opacity:1;" d="M 23.4375 18.75 C 23.4375 18.910156 23.40625 19.058594 23.363281 19.203125 L 16.40625 11.71875 L 23.4375 6.25 Z M 2.777344 20.269531 L 9.828125 12.757812 L 12.5 14.777344 L 15.054688 12.746094 L 22.222656 20.269531 C 22.109375 20.296875 2.890625 20.296875 2.777344 20.269531 Z M 1.5625 18.75 L 1.5625 6.25 L 8.59375 11.71875 L 1.636719 19.203125 C 1.59375 19.058594 1.5625 18.910156 1.5625 18.75 Z M 22.65625 4.6875 L 12.5 12.5 L 2.34375 4.6875 Z M 21.875 3.125 L 3.125 3.125 C 1.398438 3.125 0 4.523438 0 6.25 L 0 18.75 C 0 20.476562 1.398438 21.875 3.125 21.875 L 21.875 21.875 C 23.601562 21.875 25 20.476562 25 18.75 L 25 6.25 C 25 4.523438 23.601562 3.125 21.875 3.125 Z M 21.875 3.125 "/>
</g>
</svg>
