<?xml version="1.0" encoding="UTF-8"?>
<svg xmlns="http://www.w3.org/2000/svg" xmlns:xlink="http://www.w3.org/1999/xlink" width="25px" height="25px" viewBox="0 0 25 25" version="1.1">
<g id="surface1">
<path style="fill:none;stroke-width:2;stroke-linecap:round;stroke-linejoin:round;stroke:#2c8c40;stroke-opacity:1;stroke-miterlimit:4;" d="M 5.1375 12.765 L 8.15625 9.08625 C 8.46375 8.6925 8.6175 8.49375 8.69625 8.26875 C 8.7675 8.07375 8.7975 7.86375 8.7825 7.6575 C 8.7675 7.42125 8.67375 7.18875 8.49 6.72 L 7.7775 4.94625 C 7.50375 4.25625 7.365 3.91125 7.125 3.68625 C 6.915 3.4875 6.6525 3.3525 6.37125 3.3 C 6.04875 3.23625 5.68875 3.32625 4.96875 3.50625 L 3 4.00125 C 3 13.99875 10.00125 21 19.99875 21 L 20.49 19.03125 C 20.67 18.31125 20.76 17.95125 20.7 17.62875 C 20.6475 17.34375 20.5125 17.08125 20.31375 16.875 C 20.08875 16.635 19.74375 16.49625 19.05375 16.2225 L 17.4675 15.58875 C 16.93875 15.375 16.6725 15.27 16.40625 15.2625 C 16.17375 15.255 15.94125 15.3 15.7275 15.40125 C 15.4875 15.51375 15.285 15.7125 14.88 16.1175 L 11.8275 19.17375 M 13.00125 7.00125 C 13.97625 7.18875 14.8725 7.66875 15.5775 8.37375 C 16.2825 9.075 16.75875 9.975 16.95 10.95 M 13.00125 3 C 15.03 3.225 16.92 4.1325 18.3675 5.57625 C 19.81125 7.02 20.7225 8.91 20.95125 10.93875 " transform="matrix(1.041667,0,0,1.041667,0,0)"/>
</g>
</svg>
