<?xml version="1.0" encoding="UTF-8"?>
<svg xmlns="http://www.w3.org/2000/svg" xmlns:xlink="http://www.w3.org/1999/xlink" width="30px" height="30px" viewBox="0 0 30 30" version="1.1">
<defs>
<clipPath id="clip1">
  <path d="M 3.882812 2 L 26 2 L 26 29.90625 L 3.882812 29.90625 Z M 3.882812 2 "/>
</clipPath>
<clipPath id="clip2">
  <path d="M 15 0.046875 L 24 0.046875 L 24 7 L 15 7 Z M 15 0.046875 "/>
</clipPath>
</defs>
<g id="surface1">
<g clip-path="url(#clip1)" clip-rule="nonzero">
<path style=" stroke:none;fill-rule:nonzero;fill:rgb(0%,0%,0%);fill-opacity:1;" d="M 10.378906 26.703125 C 10.65625 27.179688 11.117188 27.574219 11.4375 27.832031 C 12.21875 28.4375 13.089844 28.921875 14.019531 29.261719 C 14.976562 29.640625 15.996094 29.835938 17.027344 29.835938 C 18.203125 29.820312 19.367188 29.601562 20.46875 29.183594 C 21.246094 28.886719 21.96875 28.457031 22.601562 27.914062 C 23.792969 26.925781 24.621094 25.574219 25.132812 23.78125 C 25.796875 21.453125 26.085938 19.035156 25.976562 16.617188 C 25.949219 15.984375 25.761719 15.351562 25.582031 14.742188 L 25.554688 14.652344 C 25.46875 14.351562 25.3125 14.074219 25.101562 13.84375 C 24.890625 13.609375 24.628906 13.429688 24.335938 13.316406 C 23.429688 12.929688 22.589844 13.042969 21.839844 13.652344 C 21.375 12.777344 20.632812 12.199219 19.789062 12.0625 C 19.429688 12.003906 19.066406 12.03125 18.71875 12.140625 C 18.375 12.246094 18.0625 12.4375 17.800781 12.691406 C 16.859375 11.40625 16.132812 11.273438 14.664062 12.117188 C 14.644531 11.867188 14.628906 11.621094 14.613281 11.375 C 14.574219 10.757812 14.535156 10.121094 14.472656 9.496094 C 14.359375 8.324219 14.214844 6.945312 14.023438 5.578125 C 13.914062 4.859375 13.625 4.179688 13.1875 3.597656 C 12.667969 2.890625 11.945312 2.730469 11.15625 3.148438 C 10.921875 3.273438 10.710938 3.441406 10.546875 3.648438 C 10.378906 3.855469 10.253906 4.097656 10.1875 4.355469 C 10.09375 4.65625 10.039062 4.972656 10.015625 5.285156 C 10.003906 5.503906 9.988281 5.71875 9.972656 5.933594 C 9.914062 6.773438 9.855469 7.640625 9.855469 8.496094 C 9.859375 10.25 9.886719 11.96875 9.914062 13.789062 C 9.925781 14.464844 9.9375 15.144531 9.945312 15.828125 L 9.933594 15.816406 C 9.859375 15.75 9.792969 15.691406 9.722656 15.636719 C 8.410156 14.660156 6.996094 14.304688 5.519531 14.589844 C 5.191406 14.640625 4.882812 14.777344 4.621094 14.984375 C 4.363281 15.195312 4.160156 15.464844 4.039062 15.773438 C 3.917969 16.101562 3.882812 16.457031 3.9375 16.800781 C 3.992188 17.148438 4.132812 17.472656 4.347656 17.75 C 4.558594 18.011719 4.792969 18.25 5.050781 18.460938 L 5.160156 18.558594 C 6.113281 19.390625 6.90625 20.386719 7.5 21.503906 C 8.34375 23.121094 9.289062 24.824219 10.378906 26.703125 Z M 11.085938 12.441406 C 11.078125 12.109375 11.0625 11.773438 11.046875 11.449219 C 11.023438 10.875 10.996094 10.285156 11.007812 9.703125 C 11.046875 8.191406 11.132812 6.652344 11.21875 5.164062 L 11.222656 5.097656 C 11.25 4.617188 11.371094 4.105469 12.035156 3.9375 C 12.464844 4.257812 12.726562 4.722656 12.832031 5.363281 C 13.007812 6.414062 13.125 7.363281 13.1875 8.269531 C 13.277344 9.589844 13.347656 10.929688 13.414062 12.230469 C 13.445312 12.867188 13.480469 13.507812 13.511719 14.144531 C 13.53125 14.433594 13.605469 14.828125 14.070312 14.894531 C 14.523438 14.960938 14.695312 14.605469 14.824219 14.34375 C 14.882812 14.226562 14.9375 14.105469 14.996094 13.988281 C 15.148438 13.625 15.339844 13.277344 15.566406 12.953125 C 15.761719 12.695312 16.015625 12.566406 16.265625 12.609375 C 16.519531 12.648438 16.726562 12.855469 16.835938 13.171875 C 16.921875 13.472656 16.964844 13.777344 16.972656 14.085938 C 16.976562 14.195312 16.984375 14.300781 16.992188 14.40625 C 17 14.484375 16.996094 14.5625 16.984375 14.636719 C 16.964844 14.765625 16.96875 14.894531 17.003906 15.015625 C 17.042969 15.113281 17.105469 15.203125 17.183594 15.273438 C 17.257812 15.34375 17.351562 15.398438 17.453125 15.425781 C 17.554688 15.429688 17.660156 15.410156 17.757812 15.367188 C 17.851562 15.324219 17.9375 15.261719 18.007812 15.183594 C 18.082031 15.089844 18.125 14.972656 18.136719 14.855469 C 18.148438 14.789062 18.164062 14.726562 18.1875 14.664062 C 18.222656 14.566406 18.261719 14.46875 18.296875 14.371094 C 18.417969 14.035156 18.554688 13.703125 18.710938 13.382812 C 18.933594 12.941406 19.371094 12.980469 19.613281 13.042969 C 20.238281 13.203125 20.613281 13.574219 20.726562 14.148438 C 20.78125 14.464844 20.8125 14.785156 20.816406 15.105469 C 20.820312 15.183594 20.824219 15.257812 20.828125 15.332031 C 20.847656 15.683594 20.921875 16.019531 21.351562 16.105469 C 21.777344 16.195312 21.96875 15.863281 22.09375 15.644531 L 22.164062 15.519531 C 22.289062 15.289062 22.429688 15.070312 22.582031 14.859375 C 22.898438 14.441406 23.257812 14.238281 23.59375 14.285156 C 23.910156 14.332031 24.175781 14.601562 24.347656 15.046875 C 24.617188 15.71875 24.777344 16.433594 24.824219 17.15625 C 24.882812 18.820312 24.675781 20.570312 24.152344 22.835938 C 23.90625 23.871094 23.460938 24.851562 22.839844 25.71875 C 22.125 26.734375 21.070312 27.445312 19.609375 27.890625 C 17.066406 28.671875 14.679688 28.242188 12.316406 26.589844 C 12.0625 26.421875 11.84375 26.207031 11.664062 25.964844 C 11.257812 25.378906 10.886719 24.773438 10.542969 24.152344 C 10.042969 23.222656 9.546875 22.238281 9.066406 21.230469 C 8.21875 19.449219 7.164062 18.085938 5.847656 17.066406 C 5.832031 17.054688 5.816406 17.042969 5.804688 17.03125 C 5.761719 16.984375 5.714844 16.941406 5.671875 16.894531 C 5.421875 16.648438 5.183594 16.414062 5.308594 16.019531 C 5.441406 15.59375 5.828125 15.523438 6.234375 15.523438 C 6.253906 15.523438 6.269531 15.523438 6.289062 15.523438 C 7.734375 15.542969 8.808594 16.085938 9.476562 17.140625 C 9.59375 17.347656 9.679688 17.570312 9.730469 17.800781 C 9.746094 17.867188 9.765625 17.929688 9.785156 17.992188 C 9.867188 18.277344 10.011719 18.574219 10.410156 18.617188 C 10.734375 18.648438 11.019531 18.402344 11.125 18 C 11.171875 17.800781 11.195312 17.59375 11.1875 17.390625 C 11.15625 15.59375 11.125 13.976562 11.085938 12.441406 Z M 11.085938 12.441406 "/>
</g>
<g clip-path="url(#clip2)" clip-rule="nonzero">
<path style=" stroke:none;fill-rule:nonzero;fill:rgb(0%,0%,0%);fill-opacity:1;" d="M 15.996094 3.382812 C 16.261719 3.453125 16.535156 3.484375 16.804688 3.476562 C 17.835938 3.464844 18.886719 3.441406 19.898438 3.421875 C 20.320312 3.414062 20.738281 3.402344 21.15625 3.394531 C 21.265625 3.394531 21.371094 3.394531 21.5 3.394531 L 21.597656 3.394531 C 21.480469 3.546875 21.367188 3.699219 21.253906 3.84375 C 20.957031 4.230469 20.671875 4.597656 20.402344 4.96875 C 20.210938 5.234375 20.132812 5.476562 20.175781 5.667969 C 20.1875 5.726562 20.210938 5.78125 20.25 5.832031 C 20.285156 5.878906 20.332031 5.917969 20.382812 5.945312 C 20.46875 5.996094 20.566406 6.027344 20.667969 6.027344 C 20.925781 6.027344 21.113281 5.808594 21.261719 5.636719 C 21.910156 4.875 22.601562 4.050781 23.265625 3.210938 C 23.511719 2.902344 23.597656 2.6875 23.5625 2.484375 C 23.523438 2.28125 23.351562 2.109375 22.988281 1.898438 L 22.640625 1.695312 C 21.917969 1.28125 21.175781 0.851562 20.453125 0.414062 C 20.007812 0.144531 19.691406 0.0390625 19.484375 0.34375 C 19.292969 0.632812 19.425781 0.933594 19.875 1.246094 C 20.222656 1.488281 20.574219 1.710938 20.980469 1.972656 C 21.117188 2.058594 21.261719 2.152344 21.410156 2.25 L 21.40625 2.25 C 21.324219 2.257812 21.273438 2.261719 21.226562 2.261719 C 20.800781 2.28125 20.375 2.300781 19.949219 2.320312 C 18.964844 2.359375 17.945312 2.40625 16.945312 2.453125 C 16.628906 2.460938 16.3125 2.503906 16.007812 2.585938 C 15.921875 2.621094 15.847656 2.679688 15.789062 2.753906 C 15.730469 2.828125 15.691406 2.914062 15.671875 3.003906 C 15.644531 3.140625 15.863281 3.347656 15.996094 3.382812 Z M 15.996094 3.382812 "/>
</g>
</g>
</svg>
