<?xml version="1.0" encoding="UTF-8"?>
<svg xmlns="http://www.w3.org/2000/svg" xmlns:xlink="http://www.w3.org/1999/xlink" width="15px" height="15px" viewBox="0 0 15 15" version="1.1">
<g id="surface1">
<path style="fill:none;stroke-width:2;stroke-linecap:round;stroke-linejoin:round;stroke:rgb(0%,0%,0%);stroke-opacity:1;stroke-miterlimit:4;" d="M 16.06875 15 L 7.93125 15 C 7.325 15 7.025 15 6.88125 15.11875 C 6.7625 15.225 6.69375 15.38125 6.70625 15.5375 C 6.725 15.725 6.9375 15.9375 7.3625 16.36875 L 11.43125 20.4375 C 11.63125 20.63125 11.73125 20.73125 11.84375 20.76875 C 11.94375 20.8 12.05625 20.8 12.15625 20.76875 C 12.26875 20.73125 12.36875 20.63125 12.5625 20.4375 L 16.63125 16.36875 C 17.0625 15.9375 17.275 15.725 17.29375 15.5375 C 17.30625 15.38125 17.2375 15.225 17.11875 15.11875 C 16.975 15 16.675 15 16.06875 15 Z M 16.06875 15 " transform="matrix(0.625,0,0,0.625,0,0)"/>
<path style="fill:none;stroke-width:2;stroke-linecap:round;stroke-linejoin:round;stroke:rgb(0%,0%,0%);stroke-opacity:1;stroke-miterlimit:4;" d="M 7.93125 9 L 16.06875 9 C 16.675 9 16.975 9 17.11875 8.88125 C 17.2375 8.775 17.30625 8.61875 17.29375 8.4625 C 17.275 8.275 17.0625 8.0625 16.63125 7.63125 L 12.5625 3.56875 C 12.36875 3.36875 12.26875 3.26875 12.15625 3.23125 C 12.05625 3.2 11.94375 3.2 11.84375 3.23125 C 11.73125 3.26875 11.63125 3.36875 11.43125 3.56875 L 7.3625 7.63125 C 6.9375 8.0625 6.725 8.275 6.70625 8.4625 C 6.69375 8.61875 6.7625 8.775 6.88125 8.88125 C 7.025 9 7.325 9 7.93125 9 Z M 7.93125 9 " transform="matrix(0.625,0,0,0.625,0,0)"/>
</g>
</svg>
