<?xml version="1.0" encoding="UTF-8"?>
<svg xmlns="http://www.w3.org/2000/svg" xmlns:xlink="http://www.w3.org/1999/xlink" width="30px" height="30px" viewBox="0 0 30 30" version="1.1">
<g id="surface1">
<path style=" stroke:none;fill-rule:nonzero;fill:rgb(48.235294%,31.764706%,61.176471%);fill-opacity:1;" d="M 15 0 C 7.59375 0 0 1.59375 0 13.125 C 0 19.3125 2.15625 23.15625 6.5625 24.9375 L 6.5625 28.40625 C 6.5625 29.0625 6.9375 29.625 7.5 29.90625 C 7.6875 30 7.96875 30 8.15625 30 C 8.53125 30 9 29.8125 9.28125 29.53125 L 12.65625 26.15625 C 13.40625 26.15625 14.15625 26.25 15 26.25 C 22.40625 26.25 30 24.65625 30 13.125 C 30 1.59375 22.40625 0 15 0 Z M 15 0 "/>
<path style=" stroke:none;fill-rule:nonzero;fill:rgb(100%,100%,100%);fill-opacity:1;" d="M 14.53125 8.53125 C 16.78125 8.53125 18.65625 10.40625 18.65625 12.65625 C 18.65625 13.21875 19.03125 13.59375 19.59375 13.59375 C 20.15625 13.59375 20.53125 13.21875 20.53125 12.65625 C 20.53125 9.375 17.8125 6.65625 14.53125 6.65625 C 13.96875 6.65625 13.59375 7.03125 13.59375 7.59375 C 13.59375 8.15625 13.96875 8.53125 14.53125 8.53125 Z M 14.53125 8.53125 "/>
<path style=" stroke:none;fill-rule:nonzero;fill:rgb(100%,100%,100%);fill-opacity:1;" d="M 14.53125 11.4375 C 15.1875 11.4375 15.75 12 15.75 12.65625 C 15.75 13.21875 16.125 13.59375 16.6875 13.59375 C 17.25 13.59375 17.625 13.21875 17.625 12.65625 C 17.625 10.96875 16.21875 9.5625 14.53125 9.5625 C 13.96875 9.5625 13.59375 9.9375 13.59375 10.5 C 13.59375 11.0625 13.96875 11.4375 14.53125 11.4375 Z M 14.53125 11.4375 "/>
<path style=" stroke:none;fill-rule:nonzero;fill:rgb(100%,100%,100%);fill-opacity:1;" d="M 14.53125 3.75 C 13.96875 3.75 13.59375 4.125 13.59375 4.6875 C 13.59375 5.25 13.96875 5.625 14.53125 5.625 C 18.375 5.625 21.5625 8.8125 21.5625 12.65625 C 21.5625 13.21875 21.9375 13.59375 22.5 13.59375 C 23.0625 13.59375 23.4375 13.21875 23.4375 12.65625 C 23.4375 7.78125 19.40625 3.75 14.53125 3.75 Z M 14.53125 3.75 "/>
<path style=" stroke:none;fill-rule:nonzero;fill:rgb(100%,100%,100%);fill-opacity:1;" d="M 20.53125 16.03125 L 20.34375 15.9375 C 20.34375 15.9375 18.28125 14.90625 17.90625 14.8125 C 17.15625 14.53125 16.40625 14.71875 15.9375 15.375 L 15.84375 15.5625 C 15.65625 15.84375 15.375 16.21875 15.1875 16.40625 C 14.71875 16.21875 13.875 15.84375 12.75 14.90625 C 12 14.25 11.4375 13.40625 11.15625 12.9375 C 11.25 12.84375 11.25 12.84375 11.34375 12.75 C 11.4375 12.65625 11.53125 12.5625 11.625 12.46875 C 11.8125 12.28125 11.90625 12.09375 12.09375 11.8125 C 12.28125 11.34375 12.28125 10.875 12.09375 10.3125 C 12 10.125 11.625 9.28125 11.34375 8.625 L 10.96875 7.875 C 10.59375 6.9375 10.03125 6.75 9.375 6.75 C 9.28125 6.5625 9.1875 6.5625 9 6.5625 C 8.25 6.5625 7.59375 6.84375 7.125 7.3125 C 6.65625 7.78125 5.625 8.8125 5.625 10.875 C 5.625 12.5625 6.65625 14.15625 7.21875 15 L 7.3125 15.09375 C 9.09375 17.71875 11.34375 19.59375 13.59375 20.53125 C 15.5625 21.375 16.6875 21.5625 17.4375 21.5625 C 17.8125 21.5625 18.09375 21.5625 18.28125 21.46875 C 19.5 21.1875 20.90625 20.34375 21.28125 19.21875 C 21.46875 18.5625 21.75 17.4375 21.375 16.78125 C 21.1875 16.40625 20.8125 16.21875 20.53125 16.03125 Z M 20.53125 16.03125 "/>
</g>
</svg>
