<?xml version="1.0" encoding="UTF-8"?>
<svg xmlns="http://www.w3.org/2000/svg" xmlns:xlink="http://www.w3.org/1999/xlink" width="30px" height="30px" viewBox="0 0 30 30" version="1.1">
<g id="surface1">
<path style=" stroke:none;fill-rule:nonzero;fill:rgb(58.039216%,81.960784%,21.568627%);fill-opacity:1;" d="M 28.4375 15.859375 C 25.445312 9.15625 13.769531 9.738281 12.015625 17.074219 C 11.042969 21.210938 14.703125 24.863281 18.597656 25.46875 C 20.277344 25.8125 22.015625 25.609375 23.648438 25.136719 C 24.628906 25.519531 25.503906 26.132812 26.453125 26.589844 C 26.207031 25.765625 25.945312 24.953125 25.667969 24.140625 C 28.390625 22.355469 29.835938 18.945312 28.4375 15.859375 Z M 18.898438 16.46875 C 18.652344 17.230469 17.550781 17.457031 17.015625 16.878906 C 16.425781 16.34375 16.65625 15.226562 17.429688 14.988281 C 18.285156 14.628906 19.273438 15.613281 18.898438 16.46875 Z M 24.480469 16.578125 C 24.183594 17.261719 23.152344 17.417969 22.644531 16.890625 C 22.214844 16.480469 22.214844 15.753906 22.597656 15.308594 C 23.484375 14.289062 24.996094 15.441406 24.480469 16.578125 Z M 24.480469 16.578125 "/>
<path style=" stroke:none;fill-rule:nonzero;fill:rgb(58.039216%,81.960784%,21.568627%);fill-opacity:1;" d="M 2.164062 8.066406 C -0.242188 11.910156 1.351562 16.585938 5.035156 18.933594 C 4.683594 19.925781 4.351562 20.914062 4.039062 21.910156 C 5.171875 21.316406 6.308594 20.695312 7.445312 20.09375 C 8.808594 20.527344 10.257812 20.742188 11.707031 20.695312 C 11.324219 19.597656 11.238281 18.40625 11.410156 17.257812 C 12.175781 12.78125 17.050781 10.25 21.300781 10.636719 C 19.382812 2.160156 6.554688 0.929688 2.164062 8.066406 Z M 9.089844 9.34375 C 8.890625 10.316406 7.585938 10.785156 6.824219 10.132812 C 5.941406 9.511719 6.1875 7.964844 7.226562 7.652344 C 8.242188 7.261719 9.398438 8.292969 9.089844 9.34375 Z M 16.148438 9.058594 C 16.15625 10.179688 14.664062 10.878906 13.824219 10.117188 C 12.953125 9.496094 13.199219 7.980469 14.222656 7.664062 C 15.144531 7.296875 16.21875 8.074219 16.148438 9.058594 Z M 16.148438 9.058594 "/>
</g>
</svg>
