<?xml version="1.0" encoding="UTF-8"?>
<svg xmlns="http://www.w3.org/2000/svg" xmlns:xlink="http://www.w3.org/1999/xlink" width="30px" height="30px" viewBox="0 0 30 30" version="1.1">
<g id="surface1">
<path style=" stroke:none;fill-rule:evenodd;fill:rgb(40.392157%,75.686275%,36.862745%);fill-opacity:1;" d="M 14.996094 0 C 6.726562 0 0 6.726562 0 15 C 0 18.28125 1.058594 21.324219 2.855469 23.792969 L 0.988281 29.363281 L 6.753906 27.523438 C 9.125 29.09375 11.953125 30 15.003906 30 C 23.273438 30 30 23.269531 30 15 C 30 6.730469 23.273438 0 15.003906 0 Z M 10.808594 7.621094 C 10.515625 6.921875 10.296875 6.894531 9.855469 6.878906 C 9.707031 6.871094 9.539062 6.859375 9.355469 6.859375 C 8.78125 6.859375 8.179688 7.027344 7.820312 7.398438 C 7.378906 7.847656 6.285156 8.898438 6.285156 11.050781 C 6.285156 13.203125 7.855469 15.28125 8.066406 15.574219 C 8.285156 15.863281 11.125 20.34375 15.535156 22.167969 C 18.980469 23.597656 20.003906 23.464844 20.789062 23.296875 C 21.933594 23.050781 23.371094 22.203125 23.730469 21.183594 C 24.09375 20.160156 24.09375 19.285156 23.988281 19.101562 C 23.882812 18.914062 23.589844 18.808594 23.148438 18.589844 C 22.710938 18.367188 20.566406 17.308594 20.160156 17.167969 C 19.765625 17.019531 19.386719 17.074219 19.085938 17.496094 C 18.664062 18.085938 18.25 18.6875 17.914062 19.046875 C 17.648438 19.328125 17.21875 19.367188 16.855469 19.214844 C 16.371094 19.011719 15.011719 18.535156 13.339844 17.046875 C 12.042969 15.890625 11.160156 14.453125 10.90625 14.023438 C 10.648438 13.582031 10.878906 13.324219 11.082031 13.085938 C 11.300781 12.8125 11.511719 12.621094 11.734375 12.363281 C 11.953125 12.109375 12.078125 11.976562 12.21875 11.675781 C 12.367188 11.382812 12.261719 11.085938 12.15625 10.863281 C 12.050781 10.644531 11.167969 8.492188 10.808594 7.621094 Z M 10.808594 7.621094 "/>
</g>
</svg>
