<?xml version="1.0" standalone="no"?>
<!DOCTYPE svg PUBLIC "-//W3C//DTD SVG 20010904//EN"
 "http://www.w3.org/TR/2001/REC-SVG-20010904/DTD/svg10.dtd">
<svg version="1.0" xmlns="http://www.w3.org/2000/svg"
 width="315.000000pt" height="315.000000pt" viewBox="0 0 315.000000 315.000000"
 preserveAspectRatio="xMidYMid meet">
<metadata>
Created by potrace 1.14, written by Peter Selinger 2001-2017
</metadata>
<g transform="translate(0.000000,315.000000) scale(0.100000,-0.100000)"
fill="#000000" stroke="none">
<path d="M600 2031 c0 -4 42 -36 93 -70 l93 -61 800 0 801 0 11 -25 c7 -14 12
-35 12 -45 0 -33 13 -23 58 43 73 108 55 143 -84 157 -113 12 -1784 13 -1784
1z"/>
<path d="M775 1858 c-2 -7 -22 -80 -45 -163 -23 -82 -44 -158 -46 -167 -5 -16
3 -18 70 -18 42 0 76 2 76 5 0 3 20 78 45 168 25 90 45 169 45 176 0 16 -139
15 -145 -1z"/>
<path d="M1105 1858 c-2 -7 -22 -80 -45 -163 -23 -82 -43 -158 -46 -167 -5
-16 3 -18 70 -18 l75 0 11 43 c18 67 80 291 85 305 3 9 -15 12 -71 12 -51 0
-76 -4 -79 -12z"/>
<path d="M1421 1833 c-6 -21 -28 -101 -49 -178 l-38 -140 69 -3 c38 -2 72 -1
74 2 3 3 24 74 47 158 24 84 46 163 50 176 7 21 6 22 -68 22 l-75 0 -10 -37z"/>
<path d="M1640 1829 c-15 -53 -7 -84 27 -106 24 -16 50 -18 245 -15 234 4 237
3 202 -46 -15 -22 -18 -22 -269 -22 l-254 0 -10 -37 c-6 -21 -12 -49 -13 -63
l-3 -25 277 0 276 0 43 30 c91 64 137 197 89 258 l-21 27 -224 0 c-214 0 -223
1 -228 20 -4 17 -14 20 -66 20 l-60 0 -11 -41z"/>
<path d="M546 1292 c-3 -3 -6 -11 -6 -19 0 -9 18 -13 68 -13 72 0 92 -10 92
-46 0 -32 -23 -46 -72 -42 -39 3 -43 6 -46 31 -3 20 -8 27 -20 25 -12 -2 -18
-15 -20 -46 l-3 -42 88 0 c56 0 93 4 101 12 16 16 15 100 0 120 -9 11 -37 17
-95 21 -45 3 -84 2 -87 -1z"/>
<path d="M763 1293 c-17 -6 -17 -125 -1 -141 15 -15 142 -16 169 -2 16 9 19
22 19 75 0 35 -4 66 -8 69 -18 11 -33 -13 -34 -55 -2 -58 -12 -69 -63 -69 -49
0 -55 8 -55 75 0 45 -6 56 -27 48z"/>
<path d="M967 1294 c-12 -12 -8 -129 5 -142 16 -16 168 -16 168 0 0 9 3 9 12
0 7 -7 42 -12 85 -12 57 0 73 3 73 15 0 10 -16 15 -62 17 -35 2 -63 8 -63 13
0 6 28 11 63 13 45 2 62 7 62 17 0 10 -17 15 -62 17 -80 4 -78 22 2 26 44 2
60 7 60 17 0 12 -16 15 -74 15 -66 0 -77 -3 -90 -22 -9 -12 -16 -39 -16 -60
l0 -38 -60 0 c-66 0 -67 1 -72 84 -3 38 -16 55 -31 40z"/>
<path d="M1331 1291 c-7 -5 -9 -19 -5 -39 6 -27 9 -30 25 -21 11 5 19 20 19
33 0 25 -19 39 -39 27z"/>
<path d="M1475 1293 c-76 -4 -95 -14 -95 -48 0 -33 19 -44 85 -47 35 -2 60 -8
63 -15 3 -10 -16 -13 -72 -13 -61 0 -76 -3 -76 -15 0 -12 16 -15 88 -15 93 0
112 8 112 46 0 33 -19 43 -90 46 -89 4 -78 22 16 26 64 2 75 5 72 20 -4 19 -7
20 -103 15z"/>
<path d="M2438 1293 c-15 -4 -18 -15 -18 -64 l0 -59 -50 0 -50 0 0 60 c0 57
-1 60 -25 60 -24 0 -25 -2 -25 -63 0 -36 5 -68 12 -75 7 -7 42 -12 88 -12 46
0 81 5 88 12 13 13 17 134 5 141 -5 2 -16 2 -25 0z"/>
<path d="M102 1278 c-18 -18 -16 -134 2 -141 21 -8 26 2 26 55 0 26 4 48 8 48
5 0 15 -21 23 -47 13 -43 17 -48 44 -48 27 0 31 5 44 48 8 26 18 47 23 47 4 0
8 -22 8 -50 0 -43 3 -50 20 -50 18 0 20 7 20 63 0 70 -10 87 -52 87 -24 0 -32
-7 -46 -41 l-18 -42 -16 42 c-14 35 -21 41 -45 41 -16 0 -34 -5 -41 -12z"/>
<path d="M346 1274 c-18 -18 -21 -85 -6 -115 9 -16 22 -19 88 -19 47 0 83 5
90 12 16 16 16 110 0 126 -19 19 -153 16 -172 -4z m140 -41 c10 -37 -7 -57
-50 -61 -44 -4 -62 8 -61 40 2 39 14 48 60 48 40 0 45 -3 51 -27z"/>
<path d="M1862 1278 c-7 -7 -12 -21 -12 -33 0 -35 20 -45 87 -45 49 0 63 -3
63 -15 0 -12 -15 -15 -75 -15 -60 0 -75 -3 -75 -15 0 -12 16 -15 88 -15 93 0
112 8 112 45 0 35 -20 45 -87 45 -49 0 -63 3 -63 15 0 12 15 15 75 15 60 0 75
3 75 15 0 12 -16 15 -88 15 -55 0 -92 -4 -100 -12z"/>
<path d="M2078 1279 c-21 -12 -26 -107 -6 -127 16 -16 160 -16 176 0 15 15 16
92 2 119 -9 16 -22 19 -83 19 -40 0 -80 -5 -89 -11z m132 -65 l0 -45 -47 3
c-44 3 -48 5 -51 31 -6 48 3 57 53 57 l45 0 0 -46z"/>
<path d="M2480 1275 c0 -12 15 -15 75 -15 60 0 75 -3 75 -15 0 -12 -15 -15
-75 -15 l-75 0 0 -45 c0 -41 2 -45 25 -45 21 0 25 5 25 30 0 29 2 30 46 30 42
0 47 -3 57 -30 8 -21 18 -30 34 -30 13 0 23 5 23 12 0 9 3 9 12 0 15 -15 150
-16 165 -1 8 8 13 8 17 0 4 -6 39 -11 82 -11 58 0 74 3 74 15 0 10 -16 15 -62
17 -35 2 -63 8 -63 13 0 6 28 11 63 13 46 2 62 7 62 17 0 12 -15 15 -66 15
-48 0 -65 3 -62 13 3 7 28 13 66 15 46 2 62 7 62 17 0 12 -16 15 -73 15 -40 0
-78 -5 -84 -11 -8 -8 -13 -8 -17 0 -10 15 -149 14 -164 -1 -7 -7 -12 -35 -12
-62 -1 -40 -3 -47 -11 -33 -6 10 -7 31 -4 48 11 50 -6 59 -106 59 -72 0 -89
-3 -89 -15z m380 -60 l0 -45 -60 0 -60 0 0 45 0 45 60 0 60 0 0 -45z"/>
</g>
</svg>
